# xmcd
#
# Track frame offsets:
#	150
#	12123
#	20190
#	34771
#	47465
#	59425
#	72449
#	81566
#	90403
#	101754
#	114604
#	126590
#	133280
#	147571
#	162485
#	176524
#	187219
#	200234
#	209557
#	228091
#	251487
#	266628
#	280947
#	296204
#	305882
#	315966
#	326179
#
# Disc length: 4535 seconds
#
# Revision: 0
# Processed by: cddbd v1.5.2PL0 Copyright (c) Steve Scherf et al.
# Submitted via: EZCDAudioConverter 2.1.7.1
#
DISCID=b611b51b
DTITLE=Henry Mancini - Classic Soundtrack Collection
DYEAR=1900
DGENRE=
TTITLE0=The Pink Panther Theme
TTITLE1=It Had Better Be Tonight (Meglio Sta Sera) [Instrumental]
TTITLE2=Royal Blue
TTITLE3=Champagne And Quail
TTITLE4=The Village Inn
TTITLE5=The Tiber Twist
TTITLE6=It Had Better Be Tonight (Meglio Sta Sera) [Vocal]
TTITLE7=Cortina
TTITLE8=The Lonely Princess
TTITLE9=Something For Sellers
TTITLE10=Piano And Strings
TTITLE11=Shades Of Sennett
TTITLE12=Meglio Stasera (It Had Better Be Tonight)
TTITLE13=The Pink Panther
TTITLE14=The Pink Panther Theme
TTITLE15=The Greatest Gift [Instrumental]
TTITLE16=Here's Looking At You, Kid
TTITLE17=Summer In Gstaad
TTITLE18=So Smooth
TTITLE19=The Return Of The Pink Panther
TTITLE20=The Greatest Gift [Vocal]
TTITLE21=The Orange Float
TTITLE22=Dreamy
TTITLE23=Disco
TTITLE24=Navel Maneuver
TTITLE25=Belly Belly Bum Bum
TTITLE26=The Wet Look
EXTD=
EXTT0=
EXTT1=
EXTT2=
EXTT3=
EXTT4=
EXTT5=
EXTT6=
EXTT7=
EXTT8=
EXTT9=
EXTT10=
EXTT11=
EXTT12=
EXTT13=
EXTT14=
EXTT15=
EXTT16=
EXTT17=
EXTT18=
EXTT19=
EXTT20=
EXTT21=
EXTT22=
EXTT23=
EXTT24=
EXTT25=
EXTT26=
PLAYORDER=
